<?xml version="1.0" encoding="UTF-8"?>
<svg id="Layer_2" data-name="Layer 2" xmlns="http://www.w3.org/2000/svg" viewBox="0 0 41.3 41.3">
  <defs>
    <style>
      .cls-1 {
        fill: #f2f2f2;
      }
    </style>
  </defs>
  <g id="Layer_1-2" data-name="Layer 1">
    <path class="cls-1" d="M41.02,6.12l-1.65-4.44c-.66-1.77-2.92-2.26-4.26-.93l-6.69,6.69c-1.42,1.42-.75,3.86,1.21,4.34l.92,.23c1.31,.32,2.1,1.58,1.94,2.91-.4,3.17-7.44,9.61-7.69,9.84h0s0,0-.01,.01c0,0-.01,.01-.01,.01h0c-.23,.26-6.68,7.29-9.84,7.69-1.33,.17-2.59-.63-2.91-1.94l-.23-.92c-.48-1.95-2.92-2.63-4.34-1.21L.76,35.11c-1.33,1.33-.84,3.6,.93,4.26l4.44,1.65c2.47,.47,4.02,.31,8.58-.12,7.7-.72,16.22-9.74,16.34-9.86,.13-.12,9.14-8.64,9.86-16.34,.43-4.56,.59-6.11,.12-8.58Z"/>
  </g>
</svg>