<?xml version="1.0" encoding="UTF-8"?>
<svg id="Layer_2" data-name="Layer 2" xmlns="http://www.w3.org/2000/svg" viewBox="0 0 51.85 40.3">
  <defs>
    <style>
      .cls-1 {
        fill: #fff;
      }
    </style>
  </defs>
  <g id="Layer_2-2" data-name="Layer 2">
    <path class="cls-1" d="M49.36,1.23c-1.18-.76-2.67-1.23-4.32-1.23H6.81C4.83,0,3.07,.66,1.83,1.71L25.29,19.94,49.36,1.23Z"/>
    <g>
      <polygon class="cls-1" points="16.71 18.94 0 5.95 0 31.93 16.71 18.94"/>
      <path class="cls-1" d="M51.85,32.92V5.29c0-.11-.03-.2-.04-.31l-17.95,13.95,17.99,13.98Z"/>
      <path class="cls-1" d="M.58,37.13c1.05,1.86,3.44,3.17,6.23,3.17H45.04c2.45,0,4.58-1.01,5.78-2.52L30.22,21.77l-4.93,3.84-4.93-3.84L.58,37.13Z"/>
    </g>
  </g>
</svg>