<?xml version="1.0" encoding="UTF-8"?>
<svg id="Layer_2" data-name="Layer 2" xmlns="http://www.w3.org/2000/svg" viewBox="0 0 151.74 248.95">
  <defs>
    <style>
      .cls-1 {
        fill: none;
        stroke: #fff;
        stroke-linecap: round;
        stroke-linejoin: round;
        stroke-width: 8px;
      }
    </style>
  </defs>
  <g id="Layer_1-2" data-name="Layer 1">
    <g id="Shortver">
      <path class="cls-1" d="M88.37,50.28l50.62,50.62c3.23,3.23,8.75,.94,8.75-3.62V59.76c0-1.36-.54-2.66-1.5-3.62L95.62,5.51c-3.23-3.23-8.75-.94-8.75,3.62V46.66c0,1.36,.54,2.66,1.5,3.62Z"/>
      <path class="cls-1" d="M117.38,119.24l21.62,21.62c3.23,3.23,8.75,.94,8.75-3.62h0c0-1.36-.54-2.66-1.5-3.62l-21.62-21.62c-3.23-3.23-8.75-.94-8.75,3.62h0c0,1.36,.54,2.66,1.5,3.62Z"/>
      <path class="cls-1" d="M37.37,76.48l26-26c.96-.96,1.5-2.26,1.5-3.62V9.13c0-4.57-5.52-6.85-8.75-3.62L5.5,56.13c-.96,.96-1.5,2.26-1.5,3.62v113.32c0,1.36,.54,2.66,1.5,3.62l21.62,21.62c3.23,3.23,8.75,.94,8.75-3.62V80.1c0-1.36,.54-2.66,1.5-3.62Z"/>
      <path class="cls-1" d="M92.38,85.59l-12.88-12.88c-2-2-5.25-2-7.25,0l-12.88,12.88c-.96,.96-1.5,2.26-1.5,3.62V226.94c0,1.36,.54,2.66,1.5,3.62l12.88,12.88c2,2,5.25,2,7.25,0l12.88-12.88c.96-.96,1.5-2.26,1.5-3.62V89.21c0-1.36-.54-2.66-1.5-3.62Z"/>
      <path class="cls-1" d="M115.88,155.56v39.13c0,4.57,5.52,6.85,8.75,3.62l23.12-23.12v-.14l-23.12-23.12c-3.23-3.23-8.75-.94-8.75,3.62Z"/>
    </g>
  </g>
</svg>